<svg xmlns="http://www.w3.org/2000/svg" height="24px" viewBox="0 -960 960 960" width="24px" fill="#000">
  <path d="M300-80q-59 0-99.5-40.5T160-220v-520q0-58 40.5-99t99.5-41h500v600q-26 0-43 17.5T740-220q0 26 17 43t43 17v80H300Zm0-80h373q-6-14-9.5-28.5T660-220q0-16 3-31t10-29H300q-26 0-43 17.5T240-220q0 26 17 43t43 17Zm-60-187q14-7 28.5-10t31.5-3h420v-440H300q-26 0-43 17.5T240-740v393Z"/>
  <path d="M918 1102Q809 1102 717 1049.5Q625 997 559 905L557 929L546 1082H287V0H565V650Q584 696 613 730Q642 764 683 786Q717 805 760.5 814.5Q804 824 858 824Q910 824 967.5 817.5Q1025 811 1080 798L1121 1075Q1088 1085 1034.5 1093.5Q981 1102 918 1102Z" transform="translate(290 -420) scale(0.28 -0.28)" fill="#000"/>
</svg>